<svg xmlns="http://www.w3.org/2000/svg" width="40" height="40" viewBox="0 0 67.9 67.9" enable-background="new 0 0 67.9 67.9"><path fill="#fff" d="M33.9 67.9c-18.7 0-33.9-15.2-33.9-34s15.2-33.9 33.9-33.9 33.9 15.2 33.9 33.9-15.2 34-33.9 34zm0-64.9c-17 0-30.9 13.9-30.9 30.9s13.9 30.9 30.9 30.9 31-13.8 31-30.9-13.9-30.9-31-30.9zM28.5 48.9c-.2 0-.5-.1-.7-.2-.5-.3-.8-.8-.8-1.3v-26.9c0-.6.3-1.1.8-1.3.5-.3 1.1-.2 1.5.1l19.4 13.4c.4.3.6.7.6 1.2s-.2 1-.6 1.2l-19.4 13.5c-.2.2-.5.3-.8.3zm1.5-25.5v21.1l15.3-10.6-15.3-10.5z"/></svg>
